<svg width="50" height="50" viewBox="0 0 50 50" fill="none" xmlns="http://www.w3.org/2000/svg">
<path d="M42.298 11.6499C41.622 10.6289 40.665 9.84786 39.53 9.39386C37.066 8.40586 34.947 7.74586 33.051 7.37386C31.721 7.11386 30.404 7.76786 29.771 8.99986L29.613 9.30786C28.209 9.15286 26.718 9.10086 25.02 9.14386C23.279 9.10186 21.783 9.15286 20.377 9.30786L20.22 8.99986C19.587 7.76786 18.268 7.11486 16.941 7.37486C15.045 7.74586 12.925 8.40586 10.462 9.39486C9.32805 9.84886 8.37105 10.6289 7.69405 11.6509C2.97305 18.7819 1.12305 26.4739 2.03905 35.1679C2.07105 35.4729 2.24105 35.7459 2.50005 35.9089C6.13205 38.1989 9.27505 39.7669 12.391 40.8449C13.694 41.2999 15.139 40.7909 15.908 39.6159L17.279 37.5149C16.187 37.1029 15.121 36.6149 14.099 36.0319C13.62 35.7589 13.453 35.1479 13.726 34.6689C13.999 34.1879 14.61 34.0189 15.09 34.2959C18.131 36.0299 21.569 36.9469 25.032 36.9469C28.495 36.9469 31.933 36.0299 34.974 34.2959C35.453 34.0189 36.064 34.1879 36.338 34.6689C36.611 35.1479 36.444 35.7589 35.965 36.0319C34.909 36.6349 33.805 37.1369 32.674 37.5559L34.085 39.6579C34.666 40.5229 35.625 41.0149 36.613 41.0149C36.935 41.0149 37.26 40.9619 37.576 40.8539C40.701 39.7749 43.85 38.2049 47.49 35.9099C47.749 35.7469 47.919 35.4729 47.951 35.1689C48.869 26.4739 47.019 18.7809 42.298 11.6499ZM18.608 28.9829C16.682 28.9829 15.097 26.9539 15.097 24.4879C15.097 22.0219 16.682 19.9929 18.608 19.9929C20.534 19.9929 22.119 22.0219 22.119 24.4879C22.119 26.9539 20.534 28.9829 18.608 28.9829ZM31.601 28.9569C29.693 28.9569 28.123 26.9159 28.123 24.4349C28.123 21.9539 29.693 19.9129 31.601 19.9129C33.509 19.9129 35.079 21.9539 35.079 24.4349C35.079 26.9159 33.509 28.9569 31.601 28.9569Z" fill="white"/>
</svg>
