<svg width="50" height="50" viewBox="0 0 50 50" fill="none" xmlns="http://www.w3.org/2000/svg">
<path d="M46.1368 6.55208C45.3868 5.91608 44.2088 5.82508 42.9908 6.31408H42.9888C41.7078 6.82808 6.72783 21.8321 5.30383 22.4451C5.04483 22.5351 2.78283 23.3791 3.01583 25.2591C3.22383 26.9541 5.04183 27.6561 5.26383 27.7371L14.1568 30.7821C14.7468 32.7461 16.9218 39.9921 17.4028 41.5401C17.7028 42.5051 18.1918 43.7731 19.0488 44.0341C19.8008 44.3241 20.5488 44.0591 21.0328 43.6791L26.4698 38.6361L35.2468 45.4811L35.4558 45.6061C36.0518 45.8701 36.6228 46.0021 37.1678 46.0021C37.5888 46.0021 37.9928 45.9231 38.3788 45.7651C39.6938 45.2251 40.2198 43.9721 40.2748 43.8301L46.8308 9.75308C47.2308 7.93308 46.6748 7.00708 46.1368 6.55208ZM21.9998 32.0001L18.9998 40.0001L15.9998 30.0001L38.9998 13.0001L21.9998 32.0001Z" fill="white"/>
</svg>
