<svg width="50" height="50" viewBox="0 0 50 50" fill="none" xmlns="http://www.w3.org/2000/svg">
<path d="M47.6699 36.6688C45.798 33.3 40.9761 29.2521 38.9855 27.4906C38.4407 27.0083 38.3824 26.174 38.8782 25.6406C42.6772 21.5583 45.7157 16.8677 46.7615 14.0333C47.223 12.7813 46.2678 11.4583 44.9219 11.4583H41.0126C39.724 11.4583 38.9699 11.9208 38.6105 12.6573C35.4532 19.1271 32.7449 21.9271 30.849 23.5636C29.7876 24.4802 28.1324 23.7208 28.1324 22.3261C28.1324 19.6386 28.1324 16.1646 28.1324 13.7011C28.1324 12.5063 27.1553 11.5396 25.9501 11.5396L18.8084 11.4583C17.9094 11.4583 17.3959 12.4761 17.9355 13.1896L19.1146 14.8823C19.5584 15.4688 19.798 16.1823 19.798 16.9146L19.7917 24.5375C19.7917 25.8636 18.1844 26.5115 17.2303 25.5823C14.0021 22.4386 11.2011 16.0188 10.1928 12.949C9.90111 12.0604 9.06882 11.4604 8.12507 11.4583L4.27402 11.449C2.82923 11.449 1.77298 12.8188 2.16569 14.1979C5.68444 26.549 12.9042 38.299 25.7709 39.5729C27.0386 39.6979 28.1324 38.6771 28.1324 37.4136V33.4073C28.1324 32.2583 29.0334 31.2708 30.1917 31.2417C30.2324 31.2406 30.273 31.2406 30.3136 31.2406C33.7167 31.2406 37.5282 36.1938 38.8615 38.5104C39.2449 39.1771 39.9615 39.5833 40.7365 39.5833H45.9167C47.4282 39.5833 48.398 37.9802 47.6699 36.6688Z" fill="white"/>
</svg>
